Coordinates
version=1
nRows=7
nColumns=63
inDegrees=yes

Units are S.I. units (second, meters, Newtons, ...)
If the header above contains a line with 'inDegrees', this indicates whether rotational values are in degrees (yes) or radians (no).

endheader
time	pelvis_tilt	pelvis_list	pelvis_rotation	pelvis_tx	pelvis_ty	pelvis_tz	hip_flexion_r	hip_adduction_r	hip_rotation_r	knee_angle_r	knee_angle_r_beta	ankle_angle_r	subtalar_angle_r	mtp_angle_r	hip_flexion_l	hip_adduction_l	hip_rotation_l	knee_angle_l	knee_angle_l_beta	ankle_angle_l	subtalar_angle_l	mtp_angle_l	L5_S1_Flex_Ext	L5_S1_Lat_Bending	L5_S1_axial_rotation	L4_L5_Flex_Ext	L4_L5_Lat_Bending	L4_L5_axial_rotation	L3_L4_Flex_Ext	L3_L4_Lat_Bending	L3_L4_axial_rotation	L2_L3_Flex_Ext	L2_L3_Lat_Bending	L2_L3_axial_rotation	L1_L2_Flex_Ext	L1_L2_Lat_Bending	L1_L2_axial_rotation	L1_T12_Flex_Ext	L1_T12_Lat_Bending	L1_T12_axial_rotation	Abs_r3	Abs_r2	Abs_r1	Abs_t1	Abs_t2	neck_flexion	neck_bending	neck_rotation	arm_flex_r	arm_add_r	arm_rot_r	elbow_flex_r	pro_sup_r	wrist_flex_r	wrist_dev_r	arm_flex_l	arm_add_l	arm_rot_l	elbow_flex_l	pro_sup_l	wrist_flex_l	wrist_dev_l
     11.66700000	    -62.08022587	     -5.83895693	      2.15683297	     -0.31531401	      1.14238101	      0.04723199	    105.67299662	     -7.69664176	     -7.52266490	     55.94555410	      0.97643412	      7.96908907	    -10.83065622	      0.00000000	    106.35407633	     -4.48775161	      6.79088027	     90.69819469	      1.58298212	     13.10090742	      1.28014496	      0.00000000	     -0.10394695	      1.07034080	     -0.63195610	     -0.19303988	      1.42355326	     -0.67145336	     -0.17077444	      2.60242661	     -0.67145336	     -0.11880097	      2.60242661	     -0.55296159	     -0.09652514	      2.18263895	     -0.51346433	     -0.05939529	      1.65795789	     -0.47396708	     -0.74248266	     12.10790914	     -3.51475024	      0.00000000	      0.00000000	      0.00000000	      0.00000000	      0.00000000	     69.14570139	     -6.61491393	      3.09531878	     39.67444910	     59.76715227	      0.00000000	      5.00000014	     64.74177160	     -4.64149915	     -5.82586813	     39.90145328	     59.31282628	      0.00000000	      5.00000014
     11.67500000	    -61.99957798	     -5.56118656	      2.59053422	     -0.31484125	      1.14219248	      0.04677157	    104.69457344	     -8.00111448	     -7.39414166	     54.40187087	      0.94949177	      7.10767208	    -10.55118977	      0.00000000	    107.07855274	     -4.07859486	      6.64479825	     92.15812043	      1.60846263	     13.41069448	      1.31791571	      0.00000000	     -0.10325565	      1.02495220	     -0.72596607	     -0.19175606	      1.36318643	     -0.77133895	     -0.16963870	      2.49206878	     -0.77133895	     -0.11801088	      2.49206878	     -0.63522031	     -0.09588319	      2.09008253	     -0.58984743	     -0.05900028	      1.58765096	     -0.54447455	     -0.73754477	     11.59446428	     -4.03760547	      0.00000000	      0.00000000	      0.00000000	      0.00000000	      0.00000000	     68.95791951	     -6.52705513	      3.00424450	     39.68739638	     59.77233249	      0.00000000	      5.00000014	     64.80547457	     -4.71598239	     -5.74601275	     39.78699119	     59.34161862	      0.00000000	      5.00000014
     11.68300000	    -61.95245289	     -5.27516328	      2.83153416	     -0.31441009	      1.14208800	      0.04651160	    103.68984935	     -8.12343372	     -7.35225257	     52.76001096	      0.92083590	      6.04199188	    -10.24251015	      0.00000000	    107.87572000	     -3.84636672	      6.53763324	     93.58973069	      1.63344895	     13.62598410	      1.42246800	      0.00000000	     -0.10187371	      0.98081359	     -0.78295740	     -0.18918966	      1.30448207	     -0.83189224	     -0.16736832	      2.38475016	     -0.83189224	     -0.11643146	      2.38475016	     -0.68508772	     -0.09459993	      2.00007507	     -0.63615289	     -0.05821064	      1.51928025	     -0.58721805	     -0.72767371	     11.09515948	     -4.35457416	      0.00000000	      0.00000000	      0.00000000	      0.00000000	      0.00000000	     68.79698568	     -6.42856467	      2.81531873	     39.64906863	     59.77137310	      0.00000000	      5.00000014	     64.89001076	     -4.82320957	     -5.56015654	     39.62121384	     59.39197564	      0.00000000	      5.00000014
     11.69200000	    -61.92777510	     -5.00215657	      2.71587348	     -0.31403290	      1.14187958	      0.04666629	    102.70980575	     -7.89414076	     -7.40170301	     51.12886441	      0.89236703	      4.43108197	    -10.38845906	      0.00000000	    108.76459145	     -3.93692878	      6.55719728	     95.10180475	      1.65983962	     13.91176839	      1.69451810	      0.00000000	     -0.09959725	      0.94023375	     -0.76565467	     -0.18496206	      1.25051088	     -0.81350809	     -0.16362833	      2.28608433	     -0.81350809	     -0.11382970	      2.28608433	     -0.66994784	     -0.09248601	      1.91732465	     -0.62209442	     -0.05690987	      1.45642207	     -0.57424100	     -0.71141323	     10.63611218	     -4.25834159	      0.00000000	      0.00000000	      0.00000000	      0.00000000	      0.00000000	     68.63223582	     -6.25879081	      2.17057972	     39.62519276	     59.78067853	      0.00000000	      5.00000014	     65.01553312	     -5.06983901	     -4.77890506	     39.38880195	     59.59397043	      0.00000000	      5.00000014
     11.70000000	    -61.86715468	     -4.65936454	      3.11720429	     -0.31367205	      1.14181346	      0.04613654	    101.70655122	     -8.19783557	     -7.30055183	     49.60723559	      0.86580959	      3.47945705	     -9.99139873	      0.00000000	    109.52797824	     -3.50342576	      6.32775726	     96.36711734	      1.68192349	     14.19677863	      1.69861994	      0.00000000	     -0.10141885	      0.89208100	     -0.85650986	     -0.18834494	      1.18646774	     -0.91004173	     -0.16662102	      2.16900575	     -0.91004173	     -0.11591160	      2.16900575	     -0.74944613	     -0.09417754	      1.81913158	     -0.69591426	     -0.05795073	      1.38183348	     -0.64238240	     -0.72442469	     10.09139873	     -4.76365090	      0.00000000	      0.00000000	      0.00000000	      0.00000000	      0.00000000	     68.51726946	     -6.10794417	      2.12564044	     39.63869547	     59.76514966	      0.00000000	      5.00000014	     65.07890398	     -5.21693055	     -4.66196817	     39.31974901	     59.60361709	      0.00000000	      5.00000014
     11.70800000	    -61.85055327	     -4.36857183	      3.18580021	     -0.31336183	      1.14175934	      0.04600973	    100.71833249	     -8.16713196	     -7.31000305	     48.02147843	      0.83813291	      1.87143111	     -9.97409762	      0.00000000	    110.39614232	     -3.38678964	      6.22918603	     97.66044290	      1.70449628	     14.50155414	      1.80839656	      0.00000000	     -0.09974481	      0.85230637	     -0.87868629	     -0.18523609	      1.13356747	     -0.93360418	     -0.16387075	      2.07229770	     -0.93360418	     -0.11399835	      2.07229770	     -0.76885050	     -0.09262303	      1.73802315	     -0.71393261	     -0.05699419	      1.32022257	     -0.65901472	     -0.71246722	      9.64146010	     -4.88698952	      0.00000000	      0.00000000	      0.00000000	      0.00000000	      0.00000000	     68.44662650	     -5.92991906	      1.79177376	     39.52915384	     59.77188668	      0.00000000	      5.00000014	     65.14310717	     -5.49768866	     -3.96141066	     39.22713148	     59.75224886	      0.00000000	      5.00000014
     11.71700000	    -61.81880227	     -4.05259177	      3.60766900	     -0.31309749	      1.14173130	      0.04551459	     99.73342065	     -8.48822395	     -7.20606264	     46.56265006	      0.81267155	      0.93600822	     -9.59971172	      0.00000000	    111.21485633	     -2.93891495	      5.93726345	     98.79759541	      1.72434333	     14.87513316	      1.79809006	      0.00000000	     -0.10067430	      0.80744999	     -0.96944860	     -0.18696225	      1.07390849	     -1.03003914	     -0.16539781	      1.96323391	     -1.03003914	     -0.11506066	      1.96323391	     -0.84826752	     -0.09348616	      1.64655203	     -0.78767699	     -0.05752530	      1.25074004	     -0.72708645	     -0.71910648	      9.13403582	     -5.39178227	      0.00000000	      0.00000000	      0.00000000	      0.00000000	      0.00000000	     68.35965968	     -5.80022379	      1.76328345	     39.55593778	     59.74700867	      0.00000000	      5.00000014	     65.20823386	     -5.66548694	     -3.83671415	     39.21760447	     59.75125702	      0.00000000	      5.00000014
